# xmcd
#
# Track frame offsets:
#	150
#	15250
#	29830
#	41622
#	55216
#	68376
#	83070
#	95033
#	110595
#	126079
#	140607
#	155821
#	169755
#	183550
#	196211
#	211717
#	227749
#	241895
#	259160
#	272804
#	286981
#
# Disc length: 4028 seconds
#
# Revision: 1
# Processed by: cddbd v1.5.2PL0 Copyright (c) Steve Scherf et al.
# Submitted via: dBpowerAMP V4.0
#
DISCID=2b0fba15
DTITLE=Various Artist - Hott Country # 279 Can
DYEAR=2019
DGENRE=Country
TTITLE0=Luke Bryan - Knockin' Boots
TTITLE1=Emerson Drive - Country People
TTITLE2=Lil Nas X ft. Billy Ray Cyrus - Old Town Road [Remix]
TTITLE3=Midland - Mr. Lonely
TTITLE4=Petric - Single Problem
TTITLE5=Jordan Davis - Slow Dance In A Parking Lot
TTITLE6=Bobby Wills - Raise The Bar
TTITLE7=Michael Ray - Her World Or Mine
TTITLE8=High Valley - Single Man
TTITLE9=Locash - One Big Country Song
TTITLE10=Carrie Underwood - Southbound
TTITLE11=Lanco - Rival
TTITLE12=Brandon Ratcliff - Rules Of Breaking Up
TTITLE13=Brad Saunders - Headlights
TTITLE14=Riley Green - In Love By Now
TTITLE15=Caroline Jones - Chasin' Me
TTITLE16=Maddie and Tae - Die From A Broken Heart
TTITLE17=Reba McEntire - Freedom
TTITLE18=Shawn Austin - What Do I Know
TTITLE19=Adam Craig - If You're Lucky
TTITLE20=Tucker Beathard - Better Than Me
EXTD=
EXTT0=
EXTT1=
EXTT2=
EXTT3=
EXTT4=
EXTT5=
EXTT6=
EXTT7=
EXTT8=
EXTT9=
EXTT10=
EXTT11=
EXTT12=
EXTT13=
EXTT14=
EXTT15=
EXTT16=
EXTT17=
EXTT18=
EXTT19=
EXTT20=
PLAYORDER=
